<svg width="123" height="34" viewBox="0 0 123 34" fill="none" xmlns="http://www.w3.org/2000/svg">
<g filter="url(#filter0_d_510_636)">
<line x1="6" y1="5" x2="6" y2="21" stroke="url(#paint0_linear_510_636)" stroke-width="4" stroke-linecap="round"/>
<line x1="16" y1="7" x2="16" y2="19" stroke="url(#paint1_linear_510_636)" stroke-width="4" stroke-linecap="round"/>
<line x1="26" y1="9" x2="26" y2="17" stroke="url(#paint2_linear_510_636)" stroke-width="4" stroke-linecap="round"/>
<path d="M44.8389 17.1543C44.8389 16.7246 44.7673 16.3415 44.624 16.0049C44.4808 15.6683 44.2445 15.3675 43.915 15.1025C43.5928 14.8304 43.1559 14.5798 42.6045 14.3506C42.0602 14.1143 41.3799 13.8815 40.5635 13.6523C39.7829 13.4303 39.0775 13.1868 38.4473 12.9219C37.8171 12.6569 37.2764 12.3525 36.8252 12.0088C36.3812 11.665 36.041 11.264 35.8047 10.8057C35.5684 10.3402 35.4502 9.79948 35.4502 9.18359C35.4502 8.58203 35.5791 8.03418 35.8369 7.54004C36.0947 7.0459 36.4564 6.61979 36.9219 6.26172C37.3945 5.90365 37.9495 5.62793 38.5869 5.43457C39.2314 5.24121 39.9368 5.14453 40.7031 5.14453C41.7988 5.14453 42.7441 5.35221 43.5391 5.76758C44.3411 6.18294 44.9606 6.74512 45.3975 7.4541C45.8415 8.15592 46.0635 8.94368 46.0635 9.81738H44.7422C44.7422 9.13704 44.5811 8.5319 44.2588 8.00195C43.9437 7.46484 43.4854 7.0459 42.8838 6.74512C42.2894 6.43717 41.5625 6.2832 40.7031 6.2832C39.8438 6.2832 39.1204 6.41569 38.5332 6.68066C37.9531 6.93848 37.5127 7.28581 37.2119 7.72266C36.9183 8.15234 36.7715 8.63216 36.7715 9.16211C36.7715 9.53451 36.8431 9.87826 36.9863 10.1934C37.1296 10.5013 37.3623 10.7913 37.6846 11.0635C38.014 11.3285 38.4473 11.5791 38.9844 11.8154C39.5215 12.0446 40.1839 12.263 40.9717 12.4707C41.8024 12.6999 42.54 12.9541 43.1846 13.2334C43.8291 13.5127 44.3734 13.835 44.8174 14.2002C45.2614 14.5583 45.598 14.9772 45.8271 15.457C46.0563 15.9368 46.1709 16.4954 46.1709 17.1328C46.1709 17.7702 46.0348 18.3431 45.7627 18.8516C45.4977 19.3529 45.1217 19.779 44.6348 20.1299C44.1549 20.4808 43.5856 20.7493 42.9268 20.9355C42.2751 21.1217 41.5625 21.2148 40.7891 21.2148C40.0944 21.2148 39.4033 21.1253 38.7158 20.9463C38.0283 20.7673 37.3981 20.4915 36.8252 20.1191C36.2594 19.7396 35.8047 19.2526 35.4609 18.6582C35.1243 18.0638 34.9561 17.3548 34.9561 16.5312H36.2666C36.2666 17.1901 36.3991 17.7451 36.6641 18.1963C36.929 18.6475 37.2799 19.0127 37.7168 19.292C38.1608 19.5713 38.6478 19.7754 39.1777 19.9043C39.7148 20.026 40.252 20.0869 40.7891 20.0869C41.6126 20.0869 42.3252 19.9652 42.9268 19.7217C43.5355 19.4782 44.0046 19.138 44.334 18.7012C44.6706 18.2572 44.8389 17.7415 44.8389 17.1543ZM50.1562 9.37695V21H48.8779V9.37695H50.1562ZM48.6523 6.01465C48.6523 5.77116 48.7275 5.56706 48.8779 5.40234C49.0355 5.23047 49.2503 5.14453 49.5225 5.14453C49.7946 5.14453 50.0094 5.23047 50.167 5.40234C50.3317 5.56706 50.4141 5.77116 50.4141 6.01465C50.4141 6.25098 50.3317 6.45508 50.167 6.62695C50.0094 6.79167 49.7946 6.87402 49.5225 6.87402C49.2503 6.87402 49.0355 6.79167 48.8779 6.62695C48.7275 6.45508 48.6523 6.25098 48.6523 6.01465ZM58.0625 9.37695V10.4297H52.2402V9.37695H58.0625ZM54.3779 6.39062H55.6562V18.1748C55.6562 18.7119 55.7279 19.1165 55.8711 19.3887C56.0143 19.6608 56.2005 19.8434 56.4297 19.9365C56.6589 20.0296 56.9059 20.0762 57.1709 20.0762C57.3643 20.0762 57.5505 20.0654 57.7295 20.0439C57.9085 20.0153 58.0697 19.9867 58.2129 19.958L58.2666 21.043C58.109 21.0931 57.9049 21.1325 57.6543 21.1611C57.4036 21.1969 57.153 21.2148 56.9023 21.2148C56.4082 21.2148 55.9714 21.1253 55.5918 20.9463C55.2122 20.7601 54.915 20.445 54.7002 20.001C54.4854 19.5498 54.3779 18.9375 54.3779 18.1641V6.39062ZM65.249 21.2148C64.4899 21.2148 63.7917 21.0752 63.1543 20.7959C62.5241 20.5166 61.9727 20.1227 61.5 19.6143C61.0345 19.1058 60.6729 18.5042 60.415 17.8096C60.1644 17.1077 60.0391 16.3415 60.0391 15.5107V15.0488C60.0391 14.1536 60.1715 13.3444 60.4365 12.6211C60.7015 11.8978 61.0667 11.2783 61.5322 10.7627C61.9977 10.2471 62.5277 9.85319 63.1221 9.58105C63.7236 9.30176 64.3538 9.16211 65.0127 9.16211C65.7503 9.16211 66.4056 9.2946 66.9785 9.55957C67.5514 9.81738 68.0312 10.1862 68.418 10.666C68.8118 11.1387 69.109 11.7008 69.3096 12.3525C69.5101 12.9971 69.6104 13.7096 69.6104 14.4902V15.2744H60.8125V14.1787H68.332V14.0283C68.3177 13.3766 68.1852 12.7679 67.9346 12.2021C67.6911 11.6292 67.3258 11.1637 66.8389 10.8057C66.3519 10.4476 65.7432 10.2686 65.0127 10.2686C64.4684 10.2686 63.9671 10.3831 63.5088 10.6123C63.0576 10.8415 62.6673 11.1709 62.3379 11.6006C62.0156 12.0231 61.765 12.528 61.5859 13.1152C61.4141 13.6953 61.3281 14.3398 61.3281 15.0488V15.5107C61.3281 16.1553 61.4212 16.7568 61.6074 17.3154C61.8008 17.8669 62.0729 18.3538 62.4238 18.7764C62.7819 19.1989 63.2044 19.5283 63.6914 19.7646C64.1784 20.001 64.7155 20.1191 65.3027 20.1191C65.9902 20.1191 66.599 19.9938 67.1289 19.7432C67.6589 19.4854 68.1351 19.0807 68.5576 18.5293L69.3633 19.1523C69.1126 19.5247 68.7975 19.8685 68.418 20.1836C68.0456 20.4987 67.598 20.7493 67.0752 20.9355C66.5524 21.1217 65.9437 21.2148 65.249 21.2148ZM81.8457 18.8623V21H73.9932V18.8623H81.8457ZM74.7451 5.35938V21H72.0488V5.35938H74.7451ZM83.1777 15.3174V15.0703C83.1777 14.2324 83.2995 13.4554 83.543 12.7393C83.7865 12.016 84.1374 11.3893 84.5957 10.8594C85.0612 10.3223 85.627 9.9069 86.293 9.61328C86.9661 9.3125 87.7253 9.16211 88.5703 9.16211C89.4225 9.16211 90.1816 9.3125 90.8477 9.61328C91.5208 9.9069 92.0902 10.3223 92.5557 10.8594C93.0212 11.3893 93.3757 12.016 93.6191 12.7393C93.8626 13.4554 93.9844 14.2324 93.9844 15.0703V15.3174C93.9844 16.1553 93.8626 16.9323 93.6191 17.6484C93.3757 18.3646 93.0212 18.9912 92.5557 19.5283C92.0902 20.0583 91.5244 20.4736 90.8584 20.7744C90.1924 21.068 89.4368 21.2148 88.5918 21.2148C87.7396 21.2148 86.9769 21.068 86.3037 20.7744C85.6377 20.4736 85.0719 20.0583 84.6064 19.5283C84.141 18.9912 83.7865 18.3646 83.543 17.6484C83.2995 16.9323 83.1777 16.1553 83.1777 15.3174ZM85.7666 15.0703V15.3174C85.7666 15.8402 85.8203 16.3343 85.9277 16.7998C86.0352 17.2653 86.2035 17.6735 86.4326 18.0244C86.6618 18.3753 86.9554 18.651 87.3135 18.8516C87.6715 19.0521 88.0977 19.1523 88.5918 19.1523C89.0716 19.1523 89.487 19.0521 89.8379 18.8516C90.196 18.651 90.4896 18.3753 90.7188 18.0244C90.9479 17.6735 91.1162 17.2653 91.2236 16.7998C91.3382 16.3343 91.3955 15.8402 91.3955 15.3174V15.0703C91.3955 14.5547 91.3382 14.0677 91.2236 13.6094C91.1162 13.1439 90.9443 12.7321 90.708 12.374C90.4788 12.016 90.1852 11.7367 89.8271 11.5361C89.4762 11.3285 89.0573 11.2246 88.5703 11.2246C88.0833 11.2246 87.6608 11.3285 87.3027 11.5361C86.9518 11.7367 86.6618 12.016 86.4326 12.374C86.2035 12.7321 86.0352 13.1439 85.9277 13.6094C85.8203 14.0677 85.7666 14.5547 85.7666 15.0703ZM103.599 9.37695H105.951V20.6777C105.951 21.7233 105.729 22.6113 105.285 23.3418C104.841 24.0723 104.222 24.6273 103.427 25.0068C102.632 25.3936 101.712 25.5869 100.666 25.5869C100.222 25.5869 99.7279 25.5225 99.1836 25.3936C98.6465 25.2646 98.1237 25.057 97.6152 24.7705C97.1139 24.4912 96.695 24.1224 96.3584 23.6641L97.5723 22.1387C97.9876 22.6328 98.446 22.9945 98.9473 23.2236C99.4486 23.4528 99.9749 23.5674 100.526 23.5674C101.121 23.5674 101.626 23.4564 102.041 23.2344C102.464 23.0195 102.789 22.7008 103.019 22.2783C103.248 21.8558 103.362 21.3402 103.362 20.7314V12.0088L103.599 9.37695ZM95.7031 15.3174V15.0918C95.7031 14.2109 95.8105 13.4089 96.0254 12.6855C96.2402 11.9551 96.5482 11.3285 96.9492 10.8057C97.3503 10.2757 97.8372 9.87109 98.4102 9.5918C98.9831 9.30534 99.6312 9.16211 100.354 9.16211C101.106 9.16211 101.747 9.29818 102.277 9.57031C102.814 9.84245 103.262 10.2327 103.62 10.7412C103.978 11.2425 104.257 11.8441 104.458 12.5459C104.666 13.2406 104.82 14.014 104.92 14.8662V15.5859C104.827 16.4167 104.669 17.1758 104.447 17.8633C104.225 18.5508 103.932 19.1452 103.566 19.6465C103.201 20.1478 102.75 20.5345 102.213 20.8066C101.683 21.0788 101.056 21.2148 100.333 21.2148C99.624 21.2148 98.9831 21.068 98.4102 20.7744C97.8444 20.4808 97.3574 20.069 96.9492 19.5391C96.5482 19.0091 96.2402 18.3861 96.0254 17.6699C95.8105 16.9466 95.7031 16.1624 95.7031 15.3174ZM98.292 15.0918V15.3174C98.292 15.8473 98.3421 16.3415 98.4424 16.7998C98.5498 17.2581 98.7109 17.6628 98.9258 18.0137C99.1478 18.3574 99.4271 18.6296 99.7637 18.8301C100.107 19.0234 100.512 19.1201 100.978 19.1201C101.586 19.1201 102.084 18.9912 102.471 18.7334C102.865 18.4756 103.165 18.1283 103.373 17.6914C103.588 17.2474 103.738 16.7533 103.824 16.209V14.2646C103.781 13.8421 103.692 13.4482 103.556 13.083C103.427 12.7178 103.251 12.3991 103.029 12.127C102.807 11.8477 102.528 11.6328 102.191 11.4824C101.855 11.3249 101.457 11.2461 100.999 11.2461C100.534 11.2461 100.129 11.3464 99.7852 11.5469C99.4414 11.7474 99.1585 12.0231 98.9365 12.374C98.7217 12.7249 98.5605 13.1331 98.4531 13.5986C98.3457 14.0641 98.292 14.5618 98.292 15.0918ZM108.143 15.3174V15.0703C108.143 14.2324 108.264 13.4554 108.508 12.7393C108.751 12.016 109.102 11.3893 109.561 10.8594C110.026 10.3223 110.592 9.9069 111.258 9.61328C111.931 9.3125 112.69 9.16211 113.535 9.16211C114.387 9.16211 115.146 9.3125 115.812 9.61328C116.486 9.9069 117.055 10.3223 117.521 10.8594C117.986 11.3893 118.34 12.016 118.584 12.7393C118.827 13.4554 118.949 14.2324 118.949 15.0703V15.3174C118.949 16.1553 118.827 16.9323 118.584 17.6484C118.34 18.3646 117.986 18.9912 117.521 19.5283C117.055 20.0583 116.489 20.4736 115.823 20.7744C115.157 21.068 114.402 21.2148 113.557 21.2148C112.704 21.2148 111.942 21.068 111.269 20.7744C110.603 20.4736 110.037 20.0583 109.571 19.5283C109.106 18.9912 108.751 18.3646 108.508 17.6484C108.264 16.9323 108.143 16.1553 108.143 15.3174ZM110.731 15.0703V15.3174C110.731 15.8402 110.785 16.3343 110.893 16.7998C111 17.2653 111.168 17.6735 111.397 18.0244C111.627 18.3753 111.92 18.651 112.278 18.8516C112.636 19.0521 113.062 19.1523 113.557 19.1523C114.036 19.1523 114.452 19.0521 114.803 18.8516C115.161 18.651 115.454 18.3753 115.684 18.0244C115.913 17.6735 116.081 17.2653 116.188 16.7998C116.303 16.3343 116.36 15.8402 116.36 15.3174V15.0703C116.36 14.5547 116.303 14.0677 116.188 13.6094C116.081 13.1439 115.909 12.7321 115.673 12.374C115.444 12.016 115.15 11.7367 114.792 11.5361C114.441 11.3285 114.022 11.2246 113.535 11.2246C113.048 11.2246 112.626 11.3285 112.268 11.5361C111.917 11.7367 111.627 12.016 111.397 12.374C111.168 12.7321 111 13.1439 110.893 13.6094C110.785 14.0677 110.731 14.5547 110.731 15.0703Z" fill="black"/>
</g>
<defs>
<filter id="filter0_d_510_636" x="0" y="0" width="124" height="34" filterUnits="userSpaceOnUse" color-interpolation-filters="sRGB">
<feFlood flood-opacity="0" result="BackgroundImageFix"/>
<feColorMatrix in="SourceAlpha" type="matrix" values="0 0 0 0 0 0 0 0 0 0 0 0 0 0 0 0 0 0 127 0" result="hardAlpha"/>
<feOffset dy="4"/>
<feGaussianBlur stdDeviation="2"/>
<feComposite in2="hardAlpha" operator="out"/>
<feColorMatrix type="matrix" values="0 0 0 0 0 0 0 0 0 0 0 0 0 0 0 0 0 0 0.25 0"/>
<feBlend mode="normal" in2="BackgroundImageFix" result="effect1_dropShadow_510_636"/>
<feBlend mode="normal" in="SourceGraphic" in2="effect1_dropShadow_510_636" result="shape"/>
</filter>
<linearGradient id="paint0_linear_510_636" x1="3.5" y1="3" x2="3.5" y2="23" gradientUnits="userSpaceOnUse">
<stop stop-color="#EC008C"/>
<stop offset="1" stop-color="#FC6767"/>
</linearGradient>
<linearGradient id="paint1_linear_510_636" x1="13.5" y1="5" x2="13.5" y2="21" gradientUnits="userSpaceOnUse">
<stop stop-color="#E65C00"/>
<stop offset="1" stop-color="#F9D423"/>
</linearGradient>
<linearGradient id="paint2_linear_510_636" x1="23.5" y1="7" x2="23.5" y2="19" gradientUnits="userSpaceOnUse">
<stop stop-color="#00D2FF"/>
<stop offset="1" stop-color="#3A7BD5"/>
</linearGradient>
</defs>
</svg>
